# xmcd CD database file
#
# Track frame offsets:
#	150
#	1521
#	17908
#	41054
#	41734
#	54451
#	59473
#	100888
#	106928
#	124817
#	129458
#	168915
#	171186
#	206680
#	207477
#	230900
#	232780
#	249919
#
# Disc length: 3604 seconds
#
# Revision: 0
# Processed by: cddbd v1.5.1PL0 Copyright (c) Steve Scherf et al.
# Submitted via: CDex 1.51
#
DISCID=f10e1212
DTITLE=Duke Ellington - Newport 1956 (complete) disc 2
DYEAR=1900
DGENRE=Jazz
TTITLE0=01 - Duke Introduces Johnny Hodges
TTITLE1=02 - I Got It Bad (And That Ain't Good)
TTITLE2=03 - Jeep's Blues
TTITLE3=04 - Duke Calms Crowd - Introduces Nance and Tune
TTITLE4=05 - Tulip Or Turnip
TTITLE5=06 - Riot Prevention
TTITLE6=07 - Skin Deep
TTITLE7=08 - Mood Indigo
TTITLE8=09 - Studio Concert
TTITLE9=10 - F N O'Connor Intr Duke-Duke Intro New Work Part I
TTITLE10=11 - Part I- Festival Junction
TTITLE11=12 - Duke Announces Soloists - Introduces Part II
TTITLE12=13 - Part II- Blues To Be There
TTITLE13=14 - Duke ann Nance and Procope - Introduces Part III
TTITLE14=15 - Part III- Newport Up
TTITLE15=16 - Duke ann Ham, Gon and Terry-Duke Introduces Hodges
TTITLE16=17 - I Got It Bad (And That Ain't Good)
TTITLE17=18 - Jeep's Blues
EXTD=
EXTT0=
EXTT1=
EXTT2=
EXTT3=
EXTT4=
EXTT5=
EXTT6=
EXTT7=
EXTT8=
EXTT9=
EXTT10=
EXTT11=
EXTT12=
EXTT13=
EXTT14=
EXTT15=
EXTT16=
EXTT17=
PLAYORDER=
